<?xml version="1.0" encoding="UTF-8" standalone="no"?>
<!-- Created with Inkscape (http://www.inkscape.org/) -->

<svg
   version="1.1"
   id="svg132"
   width="225"
   height="225"
   viewBox="0 0 225 225"
   sodipodi:docname="images.png"
   xmlns:inkscape="http://www.inkscape.org/namespaces/inkscape"
   xmlns:sodipodi="http://sodipodi.sourceforge.net/DTD/sodipodi-0.dtd"
   xmlns="http://www.w3.org/2000/svg"
   xmlns:svg="http://www.w3.org/2000/svg">
  <defs
     id="defs136" />
  <sodipodi:namedview
     id="namedview134"
     pagecolor="#ffffff"
     bordercolor="#000000"
     borderopacity="0.25"
     inkscape:showpageshadow="2"
     inkscape:pageopacity="0.0"
     inkscape:pagecheckerboard="true"
     inkscape:deskcolor="#d1d1d1"
     showgrid="false" />
  <g
     inkscape:groupmode="layer"
     inkscape:label="Image"
     id="g138">
    <path
       id="rect906"
       style="display:inline;fill:#ffffff;fill-opacity:1;stroke-width:2.33462;stroke-linecap:round;stroke-linejoin:round;stroke-miterlimit:4.4;stroke-dasharray:14.0077, 14.0077;stroke-dashoffset:31.7507"
       d="m 28.013672,19.720703 c -5.112624,0 -9.228516,4.115892 -9.228516,9.228516 V 166.91602 c 0,5.11262 4.115892,9.22851 9.228516,9.22851 H 168.75 c 5.11262,0 9.22852,-4.11589 9.22852,-9.22851 V 28.949219 c 0,-5.112624 -4.1159,-9.228516 -9.22852,-9.228516 z m 70.591797,36.259766 c 4.258251,0 7.685551,3.186796 7.685551,7.144531 v 27.669922 h 27.67187 c 3.95774,0 7.14258,3.427304 7.14258,7.685547 0,4.258251 -3.18484,7.687501 -7.14258,7.687501 h -27.67187 v 27.66992 c 0,3.95774 -3.4273,7.14453 -7.685551,7.14453 -4.258243,0 -7.685547,-3.18679 -7.685547,-7.14453 V 106.16797 H 63.248047 c -3.957735,0 -7.142578,-3.42925 -7.142578,-7.687501 0,-4.258243 3.184843,-7.685547 7.142578,-7.685547 H 90.919922 V 63.125 c 0,-3.957735 3.427304,-7.144531 7.685547,-7.144531 z" />
    <path
       id="rect906-6"
       style="fill:#ffffff;fill-opacity:1;stroke-width:0.702694;stroke-linecap:round;stroke-linejoin:round;stroke-miterlimit:4.4;stroke-dasharray:4.21616, 4.21616;stroke-dashoffset:9.5566"
       d="m 194.74609,37.425781 c -3.99487,0 -7.21093,3.19661 -7.21093,7.167969 V 186.2832 l -0.002,0.002 c -0.0411,0.0728 -0.0486,0.14819 -0.0586,0.21875 -0.0398,0.2822 -0.12418,0.48815 -0.32227,0.6582 -0.19808,0.17006 -0.51159,0.30534 -0.91406,0.39062 -0.40247,0.0853 -0.89487,0.12028 -1.15039,0.13672 -0.10951,0.007 -0.15905,0.009 -0.19922,0.0117 H 44.9375 c -3.962825,0 -7.152344,3.21606 -7.152344,7.21094 0,3.99488 3.189519,7.21094 7.152344,7.21094 h 141.78125 c 0.0736,0 0.14177,-0.0193 0.21484,-0.0215 h 0.0195 c 0.57824,0 1.73397,0.002 3.16993,-0.21289 1.43596,-0.21468 3.15305,-0.6444 4.51953,-1.26172 1.36648,-0.61733 2.38264,-1.42318 3.28711,-2.31445 0.90447,-0.89127 1.69649,-1.86797 2.26758,-2.85156 0.57108,-0.98358 0.92044,-1.97534 1.1582,-3.09766 0.23775,-1.12233 0.36471,-2.37493 0.44726,-3.3125 0.0825,-0.93758 0.1212,-1.55913 0.11524,-1.88281 -4.6e-4,-0.0248 -0.003,-0.0372 -0.004,-0.0586 0.009,-0.14447 0.043,-0.28104 0.043,-0.42774 V 44.59375 c 0,-3.971359 -3.21606,-7.167969 -7.21094,-7.167969 z" />
  </g>
</svg>
