<?xml version="1.0" standalone="no"?>
<!DOCTYPE svg PUBLIC "-//W3C//DTD SVG 20010904//EN"
 "http://www.w3.org/TR/2001/REC-SVG-20010904/DTD/svg10.dtd">
<svg version="1.0" xmlns="http://www.w3.org/2000/svg"
 width="1121.000000pt" height="1280.000000pt" viewBox="0 0 1121.000000 1280.000000"
 preserveAspectRatio="xMidYMid meet">
<metadata>
Created by potrace 1.15, written by Peter Selinger 2001-2017
</metadata>
<g transform="translate(0.000000,1280.000000) scale(0.100000,-0.100000)"
fill="#000000" stroke="none">
<path d="M5130 12794 c-491 -31 -906 -209 -1244 -534 -251 -241 -440 -566
-527 -902 -50 -195 -51 -211 -56 -698 l-5 -465 -91 -60 c-469 -308 -913 -748
-1224 -1215 -340 -511 -562 -1066 -664 -1658 -35 -209 -49 -371 -59 -702 -27
-915 -103 -1471 -291 -2131 -55 -193 -61 -224 -62 -314 -1 -124 12 -184 70
-305 39 -81 58 -107 132 -180 94 -93 171 -138 296 -173 80 -23 304 -26 3155
-46 4854 -35 5050 -36 5131 -17 154 34 298 124 385 239 134 177 172 369 120
597 -14 58 -43 184 -66 280 -96 414 -173 837 -219 1210 -30 238 -43 438 -51
765 -9 377 -25 564 -65 799 -151 879 -594 1713 -1243 2337 -217 209 -458 400
-690 546 l-109 68 -6 200 c-4 110 -7 286 -7 392 0 114 -6 239 -15 307 -73 557
-380 1043 -855 1356 -200 131 -467 237 -710 281 -116 21 -157 23 -550 24 -234
1 -450 1 -480 -1z m786 -1415 c95 -17 200 -73 269 -143 101 -104 145 -215 145
-375 0 -92 0 -93 -22 -88 -52 13 -324 47 -463 58 -294 23 -757 -2 -1038 -56
-43 -8 -83 -15 -89 -15 -20 0 -3 218 22 283 68 177 230 310 410 336 84 13 697
13 766 0z"/>
<path d="M701 3255 c-147 -42 -286 -152 -353 -280 -20 -39 -80 -199 -133 -355
-235 -692 -209 -600 -209 -735 -1 -99 3 -133 22 -195 35 -112 86 -196 171
-281 83 -83 166 -134 276 -171 l70 -23 1915 3 1916 4 16 -134 c40 -338 198
-617 470 -828 415 -322 998 -345 1438 -54 317 209 527 563 547 920 l6 101 471
6 c259 4 917 7 1461 8 545 1 1195 4 1445 8 l455 7 82 27 c194 65 362 231 419
414 24 80 28 223 10 383 -21 182 -99 596 -128 675 -66 187 -230 330 -423 369
-54 11 -255 17 -860 25 -434 6 -1098 16 -1475 21 -377 5 -1013 14 -1415 20
-401 6 -1043 15 -1425 20 -382 5 -1030 14 -1440 20 -410 6 -1037 15 -1395 20
-1375 21 -1875 22 -1934 5z"/>
</g>
</svg>
