<?xml version="1.0" standalone="no"?>
<!DOCTYPE svg PUBLIC "-//W3C//DTD SVG 20010904//EN"
 "http://www.w3.org/TR/2001/REC-SVG-20010904/DTD/svg10.dtd">
<svg version="1.0" xmlns="http://www.w3.org/2000/svg"
 width="512.000000pt" height="512.000000pt" viewBox="0 0 512.000000 512.000000"
 preserveAspectRatio="xMidYMid meet">

<g transform="translate(0.000000,512.000000) scale(0.100000,-0.100000)"
fill="#000000" stroke="none">
<path d="M2330 5109 c-305 -29 -646 -126 -910 -259 -273 -138 -559 -356 -755
-576 -384 -432 -602 -931 -655 -1499 -41 -446 55 -949 260 -1355 138 -273 356
-559 576 -755 432 -384 931 -602 1499 -655 446 -41 949 55 1355 260 273 138
559 356 755 576 384 432 602 931 655 1499 41 446 -55 949 -260 1355 -138 273
-356 559 -576 755 -432 384 -931 602 -1499 655 -125 11 -320 11 -445 -1z m535
-614 c634 -112 1168 -509 1440 -1070 142 -292 199 -540 199 -865 0 -207 -12
-305 -59 -490 -173 -679 -715 -1225 -1395 -1404 -187 -50 -272 -60 -490 -60
-218 0 -303 10 -490 60 -680 179 -1222 725 -1395 1404 -47 185 -59 283 -59
490 0 207 12 305 59 490 156 611 616 1123 1210 1346 154 57 315 94 515 118 74
9 379 -4 465 -19z"/>
<path d="M2435 4214 c-16 -2 -68 -9 -115 -15 -698 -93 -1284 -680 -1391 -1394
-17 -116 -17 -374 0 -490 98 -651 589 -1198 1221 -1360 156 -39 236 -49 410
-49 174 0 254 10 410 49 632 162 1123 709 1221 1360 17 116 17 374 0 490 -28
184 -107 413 -197 570 -257 446 -681 741 -1184 825 -69 11 -325 21 -375 14z
m1095 -1075 c45 -25 80 -83 80 -131 0 -21 -11 -52 -29 -79 -38 -58 -1216
-1232 -1258 -1253 -41 -20 -85 -20 -126 0 -42 21 -621 596 -658 653 -35 54
-37 99 -8 151 39 70 124 98 192 64 18 -9 146 -129 285 -267 l252 -252 548 547
c301 300 563 556 582 567 45 27 92 27 140 0z"/>
</g>
</svg>
