<svg xmlns="http://www.w3.org/2000/svg" xmlns:xlink="http://www.w3.org/1999/xlink" width="500" zoomAndPan="magnify" viewBox="0 0 375 112.499997" height="150" preserveAspectRatio="xMidYMid meet" version="1.0"><defs><g/><clipPath id="f69aa54fc2"><path d="M 0.828125 0 L 374.167969 0 L 374.167969 112.003906 L 0.828125 112.003906 Z M 0.828125 0 " clip-rule="nonzero"/></clipPath><clipPath id="6175a66647"><path d="M 0.828125 14 L 84 14 L 84 99 L 0.828125 99 Z M 0.828125 14 " clip-rule="nonzero"/></clipPath><clipPath id="5dcc9779ee"><path d="M 103.824219 82.648438 L 265.28125 82.648438 L 265.28125 93.714844 L 103.824219 93.714844 Z M 103.824219 82.648438 " clip-rule="nonzero"/></clipPath><clipPath id="dbc675ef2f"><path d="M 275.8125 14.148438 L 374.167969 14.148438 L 374.167969 25.214844 L 275.8125 25.214844 Z M 275.8125 14.148438 " clip-rule="nonzero"/></clipPath></defs><g clip-path="url(#f69aa54fc2)"><path fill="#ffffff" d="M 0.828125 0 L 374.171875 0 L 374.171875 112.003906 L 0.828125 112.003906 Z M 0.828125 0 " fill-opacity="1" fill-rule="nonzero"/><path fill="#000000" d="M 0.828125 0 L 374.171875 0 L 374.171875 112.003906 L 0.828125 112.003906 Z M 0.828125 0 " fill-opacity="1" fill-rule="nonzero"/></g><g clip-path="url(#6175a66647)"><path stroke-linecap="round" transform="matrix(4.666759, 0, 0, 4.666759, -14.708305, 0)" fill="none" stroke-linejoin="round" d="M 10.000355 4.0002 L 6.000155 4.0002 C 4.895266 4.0002 3.999636 4.89583 3.999636 5.999882 L 3.999636 17.999646 C 3.999636 19.104535 4.895266 20.000164 6.000155 20.000164 L 10.000355 20.000164 M 10.000355 4.0002 L 17.999919 4.0002 C 19.104808 4.0002 19.9996 4.89583 19.9996 5.999882 L 19.9996 11.999764 M 10.000355 4.0002 L 10.000355 11.999764 M 10.000355 20.000164 L 17.999919 20.000164 C 19.104808 20.000164 19.9996 19.104535 19.9996 17.999646 L 19.9996 11.999764 M 10.000355 20.000164 L 10.000355 11.999764 M 10.000355 11.999764 L 19.9996 11.999764 " stroke="#ffffff" stroke-width="2" stroke-opacity="1" stroke-miterlimit="4"/></g><g clip-path="url(#5dcc9779ee)"><path fill="#ffffff" d="M 103.824219 82.648438 L 265.300781 82.648438 L 265.300781 93.714844 L 103.824219 93.714844 Z M 103.824219 82.648438 " fill-opacity="1" fill-rule="nonzero"/></g><g clip-path="url(#dbc675ef2f)"><path fill="#ffffff" d="M 275.8125 14.148438 L 375.335938 14.148438 L 375.335938 25.214844 L 275.8125 25.214844 Z M 275.8125 14.148438 " fill-opacity="1" fill-rule="nonzero"/></g><g fill="#ffffff" fill-opacity="1"><g transform="translate(99.746221, 64.979274)"><g><path d="M 23.78125 0.90625 C 19.882812 0.90625 16.53125 0.125 13.71875 -1.4375 C 10.914062 -3.007812 8.753906 -5.238281 7.234375 -8.125 C 5.710938 -11.019531 4.953125 -14.484375 4.953125 -18.515625 L 4.953125 -44.984375 L 15.171875 -44.984375 L 15.171875 -19.21875 C 15.171875 -12.269531 18.039062 -8.796875 23.78125 -8.796875 C 29.519531 -8.796875 32.390625 -12.269531 32.390625 -19.21875 L 32.390625 -44.984375 L 42.609375 -44.984375 L 42.609375 -18.515625 C 42.609375 -14.484375 41.847656 -11.019531 40.328125 -8.125 C 38.804688 -5.238281 36.640625 -3.007812 33.828125 -1.4375 C 31.023438 0.125 27.675781 0.90625 23.78125 0.90625 Z M 23.78125 0.90625 "/></g></g></g><g fill="#ffffff" fill-opacity="1"><g transform="translate(160.610679, 64.979274)"><g><path d="M 16.1875 0 L 16.1875 -35.40625 L 1.921875 -35.40625 L 1.921875 -44.984375 L 40.6875 -44.984375 L 40.6875 -35.40625 L 26.40625 -35.40625 L 26.40625 0 Z M 16.1875 0 "/></g></g></g><g fill="#ffffff" fill-opacity="1"><g transform="translate(216.526388, 64.979274)"><g><path d="M 0.578125 0 L 18.4375 -44.984375 L 28.46875 -44.984375 L 46.328125 0 L 35.40625 0 L 32.390625 -7.78125 L 14.53125 -7.78125 L 11.5 0 Z M 17.15625 -15.8125 L 29.8125 -15.8125 L 23.453125 -32.265625 Z M 17.15625 -15.8125 "/></g></g></g><g fill="#ffffff" fill-opacity="1"><g transform="translate(271.932941, 91.519575)"><g><path d="M 21.078125 0.90625 C 17.304688 0.90625 14.0625 0.285156 11.34375 -0.953125 C 8.625 -2.203125 6.523438 -3.972656 5.046875 -6.265625 C 3.566406 -8.554688 2.828125 -11.242188 2.828125 -14.328125 L 12.859375 -14.328125 C 12.859375 -12.191406 13.59375 -10.519531 15.0625 -9.3125 C 16.539062 -8.113281 18.523438 -7.515625 21.015625 -7.515625 C 23.160156 -7.515625 24.851562 -7.929688 26.09375 -8.765625 C 27.332031 -9.609375 27.953125 -10.78125 27.953125 -12.28125 C 27.953125 -13.863281 27.203125 -15.144531 25.703125 -16.125 C 24.203125 -17.113281 21.867188 -17.953125 18.703125 -18.640625 C 13.429688 -19.753906 9.53125 -21.445312 7 -23.71875 C 4.476562 -25.988281 3.21875 -28.941406 3.21875 -32.578125 C 3.21875 -36.691406 4.710938 -39.9375 7.703125 -42.3125 C 10.703125 -44.695312 14.796875 -45.890625 19.984375 -45.890625 C 23.546875 -45.890625 26.628906 -45.273438 29.234375 -44.046875 C 31.847656 -42.828125 33.875 -41.113281 35.3125 -38.90625 C 36.75 -36.707031 37.46875 -34.085938 37.46875 -31.046875 L 27.640625 -31.046875 C 27.640625 -33.054688 26.972656 -34.640625 25.640625 -35.796875 C 24.316406 -36.953125 22.472656 -37.53125 20.109375 -37.53125 C 17.972656 -37.53125 16.28125 -37.113281 15.03125 -36.28125 C 13.789062 -35.445312 13.171875 -34.28125 13.171875 -32.78125 C 13.171875 -31.40625 13.851562 -30.242188 15.21875 -29.296875 C 16.59375 -28.359375 18.992188 -27.484375 22.421875 -26.671875 C 28.035156 -25.335938 32.082031 -23.554688 34.5625 -21.328125 C 37.050781 -19.109375 38.296875 -16.21875 38.296875 -12.65625 C 38.296875 -8.414062 36.765625 -5.09375 33.703125 -2.6875 C 30.640625 -0.289062 26.429688 0.90625 21.078125 0.90625 Z M 21.078125 0.90625 "/></g></g></g><g fill="#ffffff" fill-opacity="1"><g transform="translate(326.434722, 91.519575)"><g><path d="M 5.390625 0 L 5.390625 -44.984375 L 15.609375 -44.984375 L 15.609375 -27.703125 L 19.46875 -27.703125 C 22 -27.703125 23.851562 -28.109375 25.03125 -28.921875 C 26.207031 -29.734375 27.179688 -31.191406 27.953125 -33.296875 L 32.203125 -44.984375 L 43.25 -44.984375 L 37.015625 -28.984375 C 36.460938 -27.523438 35.832031 -26.21875 35.125 -25.0625 C 34.414062 -23.90625 33.613281 -22.898438 32.71875 -22.046875 L 44.859375 0 L 32.96875 0 L 23.328125 -18.25 C 22.941406 -18.207031 22.566406 -18.1875 22.203125 -18.1875 C 21.835938 -18.1875 21.441406 -18.1875 21.015625 -18.1875 L 15.609375 -18.1875 L 15.609375 0 Z M 5.390625 0 "/></g></g></g></svg>