<svg xmlns="http://www.w3.org/2000/svg" xmlns:xlink="http://www.w3.org/1999/xlink" width="500" zoomAndPan="magnify" viewBox="0 0 375 149.999998" height="200" preserveAspectRatio="xMidYMid meet" version="1.0"><defs><g/><clipPath id="444539008c"><path d="M 106.605469 97.621094 L 257.296875 97.621094 L 257.296875 107.949219 L 106.605469 107.949219 Z M 106.605469 97.621094 " clip-rule="nonzero"/></clipPath><clipPath id="cb8354b498"><path d="M 269.390625 38.910156 L 362.28125 38.910156 L 362.28125 49.238281 L 269.390625 49.238281 Z M 269.390625 38.910156 " clip-rule="nonzero"/></clipPath></defs><g clip-path="url(#444539008c)"><path fill="#000000" d="M 106.605469 97.621094 L 257.316406 97.621094 L 257.316406 107.949219 L 106.605469 107.949219 Z M 106.605469 97.621094 " fill-opacity="1" fill-rule="nonzero"/></g><g clip-path="url(#cb8354b498)"><path fill="#000000" d="M 269.390625 38.910156 L 362.277344 38.910156 L 362.277344 49.238281 L 269.390625 49.238281 Z M 269.390625 38.910156 " fill-opacity="1" fill-rule="nonzero"/></g><path stroke-linecap="round" transform="matrix(4.375, 0, 0, 4.375, 1.664022, 19.224683)" fill="none" stroke-linejoin="round" d="M 10.00001 4.00043 L 6.00001 4.00043 C 4.895545 4.00043 4.00001 4.895073 4.00001 6.00043 L 4.00001 18.000431 C 4.00001 19.104896 4.895545 20.000431 6.00001 20.000431 L 10.00001 20.000431 M 10.00001 4.00043 L 18.000011 4.00043 C 19.104475 4.00043 20.000011 4.895073 20.000011 6.00043 L 20.000011 12.000431 M 10.00001 4.00043 L 10.00001 12.000431 M 10.00001 20.000431 L 18.000011 20.000431 C 19.104475 20.000431 20.000011 19.104896 20.000011 18.000431 L 20.000011 12.000431 M 10.00001 20.000431 L 10.00001 12.000431 M 10.00001 12.000431 L 20.000011 12.000431 " stroke="#000000" stroke-width="2" stroke-opacity="1" stroke-miterlimit="4"/><g fill="#000000" fill-opacity="1"><g transform="translate(102.797692, 81.12945)"><g><path d="M 22.1875 0.84375 C 18.550781 0.84375 15.421875 0.113281 12.796875 -1.34375 C 10.179688 -2.8125 8.164062 -4.894531 6.75 -7.59375 C 5.332031 -10.289062 4.625 -13.519531 4.625 -17.28125 L 4.625 -41.984375 L 14.15625 -41.984375 L 14.15625 -17.9375 C 14.15625 -11.457031 16.832031 -8.21875 22.1875 -8.21875 C 27.550781 -8.21875 30.234375 -11.457031 30.234375 -17.9375 L 30.234375 -41.984375 L 39.765625 -41.984375 L 39.765625 -17.28125 C 39.765625 -13.519531 39.054688 -10.289062 37.640625 -7.59375 C 36.222656 -4.894531 34.203125 -2.8125 31.578125 -1.34375 C 28.960938 0.113281 25.832031 0.84375 22.1875 0.84375 Z M 22.1875 0.84375 "/></g></g></g><g fill="#000000" fill-opacity="1"><g transform="translate(159.60506, 81.12945)"><g><path d="M 15.109375 0 L 15.109375 -33.046875 L 1.796875 -33.046875 L 1.796875 -41.984375 L 37.96875 -41.984375 L 37.96875 -33.046875 L 24.65625 -33.046875 L 24.65625 0 Z M 15.109375 0 "/></g></g></g><g fill="#000000" fill-opacity="1"><g transform="translate(211.793551, 81.12945)"><g><path d="M 0.546875 0 L 17.21875 -41.984375 L 26.578125 -41.984375 L 43.25 0 L 33.046875 0 L 30.234375 -7.265625 L 13.5625 -7.265625 L 10.734375 0 Z M 16.015625 -14.75 L 27.828125 -14.75 L 21.890625 -30.109375 Z M 16.015625 -14.75 "/></g></g></g><g fill="#000000" fill-opacity="1"><g transform="translate(272.646462, 107.675416)"><g><path d="M 19.671875 0.84375 C 16.148438 0.84375 13.117188 0.265625 10.578125 -0.890625 C 8.046875 -2.054688 6.085938 -3.707031 4.703125 -5.84375 C 3.328125 -7.988281 2.640625 -10.5 2.640625 -13.375 L 12 -13.375 C 12 -11.375 12.6875 -9.8125 14.0625 -8.6875 C 15.445312 -7.570312 17.296875 -7.015625 19.609375 -7.015625 C 21.609375 -7.015625 23.1875 -7.40625 24.34375 -8.1875 C 25.507812 -8.96875 26.09375 -10.054688 26.09375 -11.453125 C 26.09375 -12.929688 25.390625 -14.128906 23.984375 -15.046875 C 22.585938 -15.972656 20.410156 -16.753906 17.453125 -17.390625 C 12.535156 -18.429688 8.894531 -20.007812 6.53125 -22.125 C 4.175781 -24.25 3 -27.007812 3 -30.40625 C 3 -34.25 4.394531 -37.28125 7.1875 -39.5 C 9.988281 -41.71875 13.8125 -42.828125 18.65625 -42.828125 C 21.976562 -42.828125 24.859375 -42.253906 27.296875 -41.109375 C 29.734375 -39.972656 31.617188 -38.375 32.953125 -36.3125 C 34.296875 -34.257812 34.96875 -31.8125 34.96875 -28.96875 L 25.796875 -28.96875 C 25.796875 -30.851562 25.175781 -32.332031 23.9375 -33.40625 C 22.695312 -34.488281 20.976562 -35.03125 18.78125 -35.03125 C 16.78125 -35.03125 15.195312 -34.640625 14.03125 -33.859375 C 12.875 -33.078125 12.296875 -31.988281 12.296875 -30.59375 C 12.296875 -29.3125 12.9375 -28.226562 14.21875 -27.34375 C 15.5 -26.46875 17.738281 -25.648438 20.9375 -24.890625 C 26.175781 -23.648438 29.953125 -21.988281 32.265625 -19.90625 C 34.585938 -17.832031 35.75 -15.132812 35.75 -11.8125 C 35.75 -7.851562 34.316406 -4.753906 31.453125 -2.515625 C 28.597656 -0.273438 24.671875 0.84375 19.671875 0.84375 Z M 19.671875 0.84375 "/></g></g></g><g fill="#000000" fill-opacity="1"><g transform="translate(323.515275, 107.675416)"><g><path d="M 5.03125 0 L 5.03125 -41.984375 L 14.578125 -41.984375 L 14.578125 -25.859375 L 18.171875 -25.859375 C 20.535156 -25.859375 22.265625 -26.234375 23.359375 -26.984375 C 24.460938 -27.742188 25.375 -29.109375 26.09375 -31.078125 L 30.046875 -41.984375 L 40.375 -41.984375 L 34.546875 -27.046875 C 34.023438 -25.691406 33.4375 -24.472656 32.78125 -23.390625 C 32.125 -22.316406 31.375 -21.378906 30.53125 -20.578125 L 41.875 0 L 30.765625 0 L 21.78125 -17.03125 C 21.414062 -16.988281 21.0625 -16.96875 20.71875 -16.96875 C 20.382812 -16.96875 20.015625 -16.96875 19.609375 -16.96875 L 14.578125 -16.96875 L 14.578125 0 Z M 5.03125 0 "/></g></g></g></svg>