<svg xmlns="http://www.w3.org/2000/svg" xmlns:xlink="http://www.w3.org/1999/xlink" width="500" zoomAndPan="magnify" viewBox="0 0 375 149.999998" height="200" preserveAspectRatio="xMidYMid meet" version="1.0"><defs><g/><clipPath id="ed3e792a08"><path d="M 103.710938 97.566406 L 254.402344 97.566406 L 254.402344 107.898438 L 103.710938 107.898438 Z M 103.710938 97.566406 " clip-rule="nonzero"/></clipPath><clipPath id="49c3ad1d51"><path d="M 267.109375 40.558594 L 360 40.558594 L 360 50.886719 L 267.109375 50.886719 Z M 267.109375 40.558594 " clip-rule="nonzero"/></clipPath></defs><path stroke-linecap="round" transform="matrix(4.062499, 0, 0, 4.062499, 3.585461, 22.311358)" fill="none" stroke-linejoin="round" d="M 10.000119 4.000282 L 6.000118 4.000282 C 4.89531 4.000282 4.000118 4.895474 4.000118 6.000282 L 4.000118 18.000284 C 4.000118 19.10413 4.89531 20.000284 6.000118 20.000284 L 10.000119 20.000284 M 10.000119 4.000282 L 18.00012 4.000282 C 19.104928 4.000282 20.00012 4.895474 20.00012 6.000282 L 20.00012 12.000283 M 10.000119 4.000282 L 10.000119 12.000283 M 10.000119 20.000284 L 18.00012 20.000284 C 19.104928 20.000284 20.00012 19.10413 20.00012 18.000284 L 20.00012 12.000283 M 10.000119 20.000284 L 10.000119 12.000283 M 10.000119 12.000283 L 20.00012 12.000283 " stroke="#ffffff" stroke-width="2" stroke-opacity="1" stroke-miterlimit="4"/><g clip-path="url(#ed3e792a08)"><path fill="#ffffff" d="M 103.710938 97.566406 L 254.421875 97.566406 L 254.421875 107.898438 L 103.710938 107.898438 Z M 103.710938 97.566406 " fill-opacity="1" fill-rule="nonzero"/></g><g clip-path="url(#49c3ad1d51)"><path fill="#ffffff" d="M 267.109375 40.558594 L 359.996094 40.558594 L 359.996094 50.886719 L 267.109375 50.886719 Z M 267.109375 40.558594 " fill-opacity="1" fill-rule="nonzero"/></g><g fill="#ffffff" fill-opacity="1"><g transform="translate(99.90316, 81.078221)"><g><path d="M 22.1875 0.84375 C 18.550781 0.84375 15.421875 0.113281 12.796875 -1.34375 C 10.179688 -2.8125 8.164062 -4.894531 6.75 -7.59375 C 5.332031 -10.289062 4.625 -13.519531 4.625 -17.28125 L 4.625 -41.984375 L 14.15625 -41.984375 L 14.15625 -17.9375 C 14.15625 -11.457031 16.832031 -8.21875 22.1875 -8.21875 C 27.550781 -8.21875 30.234375 -11.457031 30.234375 -17.9375 L 30.234375 -41.984375 L 39.765625 -41.984375 L 39.765625 -17.28125 C 39.765625 -13.519531 39.054688 -10.289062 37.640625 -7.59375 C 36.222656 -4.894531 34.203125 -2.8125 31.578125 -1.34375 C 28.960938 0.113281 25.832031 0.84375 22.1875 0.84375 Z M 22.1875 0.84375 "/></g></g></g><g fill="#ffffff" fill-opacity="1"><g transform="translate(156.710529, 81.078221)"><g><path d="M 15.109375 0 L 15.109375 -33.046875 L 1.796875 -33.046875 L 1.796875 -41.984375 L 37.96875 -41.984375 L 37.96875 -33.046875 L 24.65625 -33.046875 L 24.65625 0 Z M 15.109375 0 "/></g></g></g><g fill="#ffffff" fill-opacity="1"><g transform="translate(208.899019, 81.078221)"><g><path d="M 0.546875 0 L 17.21875 -41.984375 L 26.578125 -41.984375 L 43.25 0 L 33.046875 0 L 30.234375 -7.265625 L 13.5625 -7.265625 L 10.734375 0 Z M 16.015625 -14.75 L 27.828125 -14.75 L 21.890625 -30.109375 Z M 16.015625 -14.75 "/></g></g></g><g fill="#ffffff" fill-opacity="1"><g transform="translate(269.751931, 107.62419)"><g><path d="M 19.671875 0.84375 C 16.148438 0.84375 13.117188 0.265625 10.578125 -0.890625 C 8.046875 -2.054688 6.085938 -3.707031 4.703125 -5.84375 C 3.328125 -7.988281 2.640625 -10.5 2.640625 -13.375 L 12 -13.375 C 12 -11.375 12.6875 -9.8125 14.0625 -8.6875 C 15.445312 -7.570312 17.296875 -7.015625 19.609375 -7.015625 C 21.609375 -7.015625 23.1875 -7.40625 24.34375 -8.1875 C 25.507812 -8.96875 26.09375 -10.054688 26.09375 -11.453125 C 26.09375 -12.929688 25.390625 -14.128906 23.984375 -15.046875 C 22.585938 -15.972656 20.410156 -16.753906 17.453125 -17.390625 C 12.535156 -18.429688 8.894531 -20.007812 6.53125 -22.125 C 4.175781 -24.25 3 -27.007812 3 -30.40625 C 3 -34.25 4.394531 -37.28125 7.1875 -39.5 C 9.988281 -41.71875 13.8125 -42.828125 18.65625 -42.828125 C 21.976562 -42.828125 24.859375 -42.253906 27.296875 -41.109375 C 29.734375 -39.972656 31.617188 -38.375 32.953125 -36.3125 C 34.296875 -34.257812 34.96875 -31.8125 34.96875 -28.96875 L 25.796875 -28.96875 C 25.796875 -30.851562 25.175781 -32.332031 23.9375 -33.40625 C 22.695312 -34.488281 20.976562 -35.03125 18.78125 -35.03125 C 16.78125 -35.03125 15.195312 -34.640625 14.03125 -33.859375 C 12.875 -33.078125 12.296875 -31.988281 12.296875 -30.59375 C 12.296875 -29.3125 12.9375 -28.226562 14.21875 -27.34375 C 15.5 -26.46875 17.738281 -25.648438 20.9375 -24.890625 C 26.175781 -23.648438 29.953125 -21.988281 32.265625 -19.90625 C 34.585938 -17.832031 35.75 -15.132812 35.75 -11.8125 C 35.75 -7.851562 34.316406 -4.753906 31.453125 -2.515625 C 28.597656 -0.273438 24.671875 0.84375 19.671875 0.84375 Z M 19.671875 0.84375 "/></g></g></g><g fill="#ffffff" fill-opacity="1"><g transform="translate(320.620743, 107.62419)"><g><path d="M 5.03125 0 L 5.03125 -41.984375 L 14.578125 -41.984375 L 14.578125 -25.859375 L 18.171875 -25.859375 C 20.535156 -25.859375 22.265625 -26.234375 23.359375 -26.984375 C 24.460938 -27.742188 25.375 -29.109375 26.09375 -31.078125 L 30.046875 -41.984375 L 40.375 -41.984375 L 34.546875 -27.046875 C 34.023438 -25.691406 33.4375 -24.472656 32.78125 -23.390625 C 32.125 -22.316406 31.375 -21.378906 30.53125 -20.578125 L 41.875 0 L 30.765625 0 L 21.78125 -17.03125 C 21.414062 -16.988281 21.0625 -16.96875 20.71875 -16.96875 C 20.382812 -16.96875 20.015625 -16.96875 19.609375 -16.96875 L 14.578125 -16.96875 L 14.578125 0 Z M 5.03125 0 "/></g></g></g></svg>